<?xml version="1.0" encoding="UTF-8" standalone="no"?>
<!-- Created with Inkscape (http://www.inkscape.org/) -->

<svg
   width="48"
   height="48"
   viewBox="0 0 12.7 12.7"
   version="1.1"
   id="svg1"
   xml:space="preserve"
   inkscape:version="1.3.2 (091e20ef0f, 2023-11-25)"
   sodipodi:docname="virtual-pen.svg"
   xmlns:inkscape="http://www.inkscape.org/namespaces/inkscape"
   xmlns:sodipodi="http://sodipodi.sourceforge.net/DTD/sodipodi-0.dtd"
   xmlns:xlink="http://www.w3.org/1999/xlink"
   xmlns="http://www.w3.org/2000/svg"
   xmlns:svg="http://www.w3.org/2000/svg"><sodipodi:namedview
     id="namedview1"
     pagecolor="#ffffff"
     bordercolor="#666666"
     borderopacity="1.0"
     inkscape:showpageshadow="2"
     inkscape:pageopacity="0.0"
     inkscape:pagecheckerboard="0"
     inkscape:deskcolor="#d1d1d1"
     inkscape:document-units="mm"
     inkscape:zoom="15.617479"
     inkscape:cx="16.519952"
     inkscape:cy="28.941931"
     inkscape:window-width="2560"
     inkscape:window-height="1374"
     inkscape:window-x="0"
     inkscape:window-y="0"
     inkscape:window-maximized="1"
     inkscape:current-layer="layer2" /><defs
     id="defs1"><linearGradient
       id="linearGradient3"
       inkscape:collect="always"><stop
         style="stop-color:#aaaaaa;stop-opacity:1;"
         offset="0"
         id="stop3" /><stop
         style="stop-color:#ebebeb;stop-opacity:1;"
         offset="1"
         id="stop4" /></linearGradient><clipPath
       clipPathUnits="userSpaceOnUse"
       id="clipPath1"><path
         id="path2"
         style="fill:#333333;fill-opacity:1;stroke:none;stroke-width:0.264583px;stroke-linecap:butt;stroke-linejoin:miter;stroke-opacity:1"
         d="m 41.400291,183.96468 v -7.11727 h -1.518132 l -2.139841,-2.006 2.372643,-0.97641 v -1.33018 h -5.899232 -5.899235 v 1.33018 l 2.372643,0.97641 -2.139839,2.006 h -1.518131 v 7.11727 h 7.184562 z"
         sodipodi:nodetypes="ccccccccccccccc" /></clipPath><clipPath
       clipPathUnits="userSpaceOnUse"
       id="clipPath5"><path
         sodipodi:type="star"
         style="fill:url(#linearGradient5);stroke:none;stroke-width:0.665001;stroke-dasharray:2.65999, 0.665001"
         id="path5"
         inkscape:flatsided="false"
         sodipodi:sides="12"
         sodipodi:cx="-2.4918008"
         sodipodi:cy="105.89039"
         sodipodi:r1="29.801908"
         sodipodi:r2="32.393379"
         sodipodi:arg1="0.78539816"
         sodipodi:arg2="1.0471976"
         inkscape:rounded="0.28"
         inkscape:randomized="0"
         d="m 18.581331,126.96352 c -1.685883,1.68588 -2.811667,5.78826 -4.876444,6.98036 -2.064775,1.1921 -6.1804285,0.11587 -8.4833862,0.73294 -2.3029585,0.61708 -5.32910512,3.60695 -7.7133032,3.60695 -2.3841972,0 -5.4103422,-2.98987 -7.7132996,-3.60695 -2.302959,-0.61707 -6.418614,0.45916 -8.48339,-0.73294 -2.064775,-1.1921 -3.190558,-5.29448 -4.87644,-6.98036 -1.685883,-1.68588 -5.78826,-2.81167 -6.980359,-4.87644 -1.192098,-2.06478 -0.115867,-6.18043 -0.732943,-8.48339 -0.617076,-2.30296 -3.606946,-5.32911 -3.606946,-7.7133 0,-2.3842 2.98987,-5.41035 3.606946,-7.713303 0.617076,-2.302958 -0.459154,-6.418613 0.732945,-8.483389 1.192098,-2.064776 5.294474,-3.190559 6.980357,-4.876441 1.685882,-1.685883 2.811667,-5.78826 4.876443,-6.980359 2.064775,-1.192098 6.180429,-0.115867 8.483387,-0.732943 2.3029581,-0.617075 5.3291047,-3.606946 7.7133028,-3.606946 2.38419719,0 5.4103422,2.989871 7.7132998,3.606946 2.3029585,0.617076 6.4186134,-0.459154 8.4833894,0.732945 2.064776,1.192099 3.190559,5.294475 4.876441,6.980357 1.685882,1.685883 5.788259,2.811667 6.980358,4.876443 1.192099,2.064776 0.115868,6.180429 0.732943,8.483387 0.617076,2.302963 3.606946,5.329103 3.606946,7.713303 0,2.3842 -2.98987,5.41034 -3.606946,7.7133 -0.617076,2.30296 0.459155,6.41861 -0.732944,8.48339 -1.192099,2.06477 -5.294475,3.19056 -6.980357,4.87644 z"
         inkscape:transform-center-y="-1.3340521e-06"
         transform="translate(34.043956,146.67513)" /></clipPath><linearGradient
       inkscape:collect="always"
       xlink:href="#linearGradient3"
       id="linearGradient5"
       gradientUnits="userSpaceOnUse"
       x1="-99.724236"
       y1="185.66945"
       x2="-99.724236"
       y2="55.265369" /><clipPath
       clipPathUnits="userSpaceOnUse"
       id="clipPath5-9"><path
         sodipodi:type="star"
         style="fill:url(#linearGradient5-3);stroke:none;stroke-width:0.665001;stroke-dasharray:2.65999, 0.665001"
         id="path5-7"
         inkscape:flatsided="false"
         sodipodi:sides="12"
         sodipodi:cx="-2.4918008"
         sodipodi:cy="105.89039"
         sodipodi:r1="29.801908"
         sodipodi:r2="32.393379"
         sodipodi:arg1="0.78539816"
         sodipodi:arg2="1.0471976"
         inkscape:rounded="0.28"
         inkscape:randomized="0"
         d="m 18.581331,126.96352 c -1.685883,1.68588 -2.811667,5.78826 -4.876444,6.98036 -2.064775,1.1921 -6.1804285,0.11587 -8.4833862,0.73294 -2.3029585,0.61708 -5.32910512,3.60695 -7.7133032,3.60695 -2.3841972,0 -5.4103422,-2.98987 -7.7132996,-3.60695 -2.302959,-0.61707 -6.418614,0.45916 -8.48339,-0.73294 -2.064775,-1.1921 -3.190558,-5.29448 -4.87644,-6.98036 -1.685883,-1.68588 -5.78826,-2.81167 -6.980359,-4.87644 -1.192098,-2.06478 -0.115867,-6.18043 -0.732943,-8.48339 -0.617076,-2.30296 -3.606946,-5.32911 -3.606946,-7.7133 0,-2.3842 2.98987,-5.41035 3.606946,-7.713303 0.617076,-2.302958 -0.459154,-6.418613 0.732945,-8.483389 1.192098,-2.064776 5.294474,-3.190559 6.980357,-4.876441 1.685882,-1.685883 2.811667,-5.78826 4.876443,-6.980359 2.064775,-1.192098 6.180429,-0.115867 8.483387,-0.732943 2.3029581,-0.617075 5.3291047,-3.606946 7.7133028,-3.606946 2.38419719,0 5.4103422,2.989871 7.7132998,3.606946 2.3029585,0.617076 6.4186134,-0.459154 8.4833894,0.732945 2.064776,1.192099 3.190559,5.294475 4.876441,6.980357 1.685882,1.685883 5.788259,2.811667 6.980358,4.876443 1.192099,2.064776 0.115868,6.180429 0.732943,8.483387 0.617076,2.302963 3.606946,5.329103 3.606946,7.713303 0,2.3842 -2.98987,5.41034 -3.606946,7.7133 -0.617076,2.30296 0.459155,6.41861 -0.732944,8.48339 -1.192099,2.06477 -5.294475,3.19056 -6.980357,4.87644 z"
         inkscape:transform-center-y="-1.3340521e-06"
         transform="translate(34.043956,146.67513)" /></clipPath><linearGradient
       inkscape:collect="always"
       xlink:href="#linearGradient3"
       id="linearGradient5-3"
       gradientUnits="userSpaceOnUse"
       x1="-99.724236"
       y1="185.66945"
       x2="-99.724236"
       y2="55.265369" /><linearGradient
       inkscape:collect="always"
       xlink:href="#linearGradient8"
       id="linearGradient9"
       x1="16.419926"
       y1="195.43658"
       x2="16.419926"
       y2="292.76071"
       gradientUnits="userSpaceOnUse"
       gradientTransform="matrix(0.17537802,0,0,0.17537802,-2.7505799,-37.032921)" /><linearGradient
       id="linearGradient8"
       inkscape:collect="always"><stop
         style="stop-color:#3e82b9;stop-opacity:1;"
         offset="0"
         id="stop8" /><stop
         style="stop-color:#284e6d;stop-opacity:1;"
         offset="1"
         id="stop9" /></linearGradient></defs><g
     inkscape:label="Layer 1"
     inkscape:groupmode="layer"
     id="layer1" /><g
     inkscape:groupmode="layer"
     id="layer2"
     inkscape:label="Layer 2"><g
       id="g1"><path
         id="path11"
         style="fill:url(#linearGradient9);fill-opacity:1;stroke:none;stroke-width:0.116626;stroke-dasharray:0.466503, 0.116626"
         d="M 6.3561237,0.20297577 A 6.2270277,6.2270277 0 0 0 0.12912046,6.430083 6.2270277,6.2270277 0 0 0 5.4070037,12.579984 L 5.6413509,12.310228 5.1560002,12.065092 v -0.334079 h 1.2067241 1.2066184 v 0.334079 L 7.0839923,12.310228 7.316348,12.577575 A 6.2270277,6.2270277 0 0 0 12.583127,6.430083 6.2270277,6.2270277 0 0 0 6.3561237,0.20297577 Z" /><path
         id="path1"
         style="fill:#f9f9f9;stroke-width:0.253;stroke-linecap:round"
         d="m 5.1557576,11.731067 v 0.33383 l 0.4857585,0.245463 -0.2232422,0.256315 c 0.3190358,0.05168 0.6416088,0.07846 0.964799,0.0801 0.3114309,-8.37e-4 0.6223608,-0.02502 0.9301758,-0.07235 L 7.0838053,12.31036 7.5695638,12.064897 v -0.33383 H 6.3629191 Z"
         sodipodi:nodetypes="ccccccccccc" /><path
         id="path10"
         style="fill:#f9f9f9;stroke:none;stroke-width:0.0541186px;stroke-linecap:butt;stroke-linejoin:miter;stroke-opacity:1"
         d="m 6.06672,1.1849582 c 0,0 -0.4229162,2.04583 -0.8925498,2.9744337 C 4.7055108,5.0860658 3.8166979,5.73183 3.8166979,5.73183 c 0,0 0.7423075,0.3873284 1.0796503,2.6270517 0.3373427,2.2397233 0.2830599,3.0098433 0.2830599,3.0098433 h 1.1767622 1.1766582 c 0,0 -0.054283,-0.77012 0.2830584,-3.0098433 C 8.1532302,6.1191584 8.8955387,5.73183 8.8955387,5.73183 c 0,0 -0.8887081,-0.6457642 -1.3573685,-1.5724381 C 7.0685368,3.2307882 6.6456205,1.1849582 6.6456205,1.1849582 V 5.9054166 A 0.66201384,0.66201384 0 0 1 7.0142681,6.4987732 0.66201384,0.66201384 0 0 1 6.3522943,7.1607491 0.66201384,0.66201384 0 0 1 5.690215,6.4987732 0.66201384,0.66201384 0 0 1 6.06672,5.9022744 Z" /></g></g></svg>
